<?xml version="1.0" encoding="utf-8"?>
<!-- Generator: Adobe Illustrator 22.1.0, SVG Export Plug-In . SVG Version: 6.00 Build 0)  -->
<svg version="1.1" id="Warstwa_1" xmlns="http://www.w3.org/2000/svg" xmlns:xlink="http://www.w3.org/1999/xlink" x="0px" y="0px"
	 viewBox="0 0 1920 442" style="enable-background:new 0 0 1920 442;" preserveAspectRatio="none" xml:space="preserve">
<style type="text/css">
	.st0{clip-path:url(#SVGID_2_);enable-background:new    ;}
	.st1{clip-path:url(#SVGID_4_);}
	.st2{opacity:0.1608;clip-path:url(#SVGID_4_);enable-background:new    ;}
	.st3{clip-path:url(#SVGID_8_);}
	.st4{clip-path:url(#SVGID_12_);}
	.st5{opacity:0.4;enable-background:new    ;}
	.st6{clip-path:url(#SVGID_16_);fill:#D1D1D1;}
	.st7{clip-path:url(#SVGID_18_);fill:#D1D1D1;}
	.st8{clip-path:url(#SVGID_20_);fill:#BE00FF;}
	.st9{clip-path:url(#SVGID_22_);fill:#6A67CE;}
	.st10{opacity:0.1608;enable-background:new    ;}
	.st11{clip-path:url(#SVGID_24_);fill:#BE00FF;}
	.st12{clip-path:url(#SVGID_26_);enable-background:new    ;}
	.st13{clip-path:url(#SVGID_28_);}
	.st14{opacity:0.1608;clip-path:url(#SVGID_28_);enable-background:new    ;}
	.st15{clip-path:url(#SVGID_32_);}
	.st16{clip-path:url(#SVGID_36_);}
</style>
<g class="st5">
	<g>
		<defs>
			<rect id="SVGID_19_" x="0" width="1920" height="699"/>
		</defs>
		<clipPath id="SVGID_2_">
			<use xlink:href="#SVGID_19_"  style="overflow:visible;"/>
		</clipPath>
		<path style="clip-path:url(#SVGID_2_);fill:#BE00FF;" d="M1958.6,330c0,0-45.5-197.9-244.5-242.3c-198.9-44.4-199.7,35.7-355,97.2
			s-275.8,83.9-442.5,51.5C750,203.9,541.6,43.1,309.3,169.9C77.1,296.6-150.5,298.2-150.5,298.2l370.2-2122.4L2288-1238.8
			L1958.6,330z"/>
	</g>
</g>
<g class="st5">
	<g>
		<defs>
			<rect id="SVGID_21_" x="0" width="1920" height="603"/>
		</defs>
		<clipPath id="SVGID_4_">
			<use xlink:href="#SVGID_21_"  style="overflow:visible;"/>
		</clipPath>
		<path style="clip-path:url(#SVGID_4_);fill:#6A67CE;" d="M1967.2,272.1c0,0,444.1-98.6,245.3-144.2s-424,197.2-684.4,113.7
			s-290.8-121.4-457.5-153.8c-166.7-32.4-319.5,57.2-568,141S-117,61.6-117,61.6l308.3-1713.2L2288.9-1230L1967.2,272.1z"/>
	</g>
</g>
<g class="st10">
	<g>
		<defs>
			<rect id="SVGID_23_" x="0" width="1920" height="707"/>
		</defs>
		<clipPath id="SVGID_6_">
			<use xlink:href="#SVGID_23_"  style="overflow:visible;"/>
		</clipPath>
		<path style="clip-path:url(#SVGID_6_);fill:#BE00FF;" d="M1931.1,387.5c0,0-50.4-172.9-249.5-216.5s-197.8,25.8-350.7,75.2
			c-152.9,49.4-272.2,65.7-438.9,33.3C725.3,247,513.8,102.1,286,206.1c-227.8,104-454.3,99.5-454.3,99.5l288.4-1688.5l2098.3,417.8
			L1931.1,387.5z"/>
	</g>
</g>
</svg>
