<?xml version="1.0" encoding="utf-8"?>
<!-- Generator: Adobe Illustrator 22.1.0, SVG Export Plug-In . SVG Version: 6.00 Build 0)  -->
<svg version="1.1" id="Warstwa_1" xmlns="http://www.w3.org/2000/svg" xmlns:xlink="http://www.w3.org/1999/xlink" x="0px" y="0px"
	 viewBox="0 0 1920 730" style="enable-background:new 0 0 1920 730;" xml:space="preserve">
<style type="text/css">
	.st0{clip-path:url(#SVGID_2_);enable-background:new    ;}
	.st1{clip-path:url(#SVGID_4_);}
	.st2{opacity:0.1608;clip-path:url(#SVGID_4_);enable-background:new    ;}
	.st3{clip-path:url(#SVGID_8_);}
	.st4{clip-path:url(#SVGID_12_);}
	.st5{opacity:0.4;enable-background:new    ;}
	.st6{clip-path:url(#SVGID_16_);fill:#D1D1D1;}
	.st7{clip-path:url(#SVGID_18_);fill:#D1D1D1;}
	.st8{clip-path:url(#SVGID_20_);fill:#BE00FF;}
	.st9{clip-path:url(#SVGID_22_);fill:#6A67CE;}
	.st10{opacity:0.1608;enable-background:new    ;}
	.st11{clip-path:url(#SVGID_24_);fill:#BE00FF;}
	.st12{clip-path:url(#SVGID_26_);enable-background:new    ;}
	.st13{clip-path:url(#SVGID_28_);}
	.st14{opacity:0.1608;clip-path:url(#SVGID_28_);enable-background:new    ;}
	.st15{clip-path:url(#SVGID_32_);}
	.st16{clip-path:url(#SVGID_36_);}
</style>
<g class="st5">
	<g>
		<defs>
			<rect id="SVGID_15_" y="-312" width="1920" height="1042"/>
		</defs>
		<clipPath id="SVGID_2_">
			<use xlink:href="#SVGID_15_"  style="overflow:visible;"/>
		</clipPath>
		<path style="clip-path:url(#SVGID_2_);fill:#D1D1D1;" d="M-49.9,58.9c0,0,42.3,199.9,241.7,248.1
			c199.4,48.2,201.5-32.4,358.8-91.5c157.3-59.1,278.9-79.6,446-44c167.1,35.5,374,201,609.8,77.6c235.8-123.4,464.9-121,464.9-121
			l-409.7,2128.7l-2070.5-625.2L-49.9,58.9z"/>
	</g>
</g>
<g class="st5">
	<g>
		<defs>
			<rect id="SVGID_17_" y="-220" width="1920" height="950"/>
		</defs>
		<clipPath id="SVGID_4_">
			<use xlink:href="#SVGID_17_"  style="overflow:visible;"/>
		</clipPath>
		<path style="clip-path:url(#SVGID_4_);fill:#D1D1D1;" d="M-59.7,117c0,0-448.5,91.4-249.4,140.7s430-191,690.5-102.3
			S671.9,282.6,839,318.2c167.1,35.5,322.4-51.9,573.9-131.9s620.6,179,620.6,179l-340.3,1718.2l-2102.8-461L-59.7,117z"/>
	</g>
</g>
</svg>
